<svg width="585px" height="330px" viewBox="0 0 585 330" version="1.1" xmlns="http://www.w3.org/2000/svg" xmlns:xlink="http://www.w3.org/1999/xlink">
    <title>Group</title>
    <g id="Page-1" stroke="none" stroke-width="1" fill="none" fill-rule="evenodd">
        <g id="Group">
            <rect id="Rectangle" fill="#1E392A" x="0" y="0" width="585" height="330"></rect>
            <path d="M97.0714286,266 L97.0714286,247.187675 L111.003759,247.187675 C115.605263,247.230626 119.088346,246.049486 121.453008,243.644258 C123.817669,241.239029 125,237.888889 125,233.593838 C125,229.298786 123.817669,225.959384 121.453008,223.57563 C119.088346,221.191877 115.605263,220 111.003759,220 L91,220 L91,266 L97.0714286,266 Z M108.964912,241.998146 L97,241.998146 L97,225 L108.964912,225 C112.438596,225 114.979532,225.724476 116.587719,227.173427 C118.195906,228.622379 119,230.730927 119,233.499073 C119,236.267219 118.195906,238.386581 116.587719,239.857158 C114.979532,241.327736 112.438596,242.041399 108.964912,241.998146 Z M176,266 L176,260.845938 L150.129032,260.845938 L150.129032,244.932773 L174.064516,244.932773 L174.064516,239.778711 L150.129032,239.778711 L150.129032,225.154062 L175.806452,225.154062 L175.806452,220 L144,220 L144,266 L176,266 Z M198.852373,266 L198.852373,229.084034 L198.982425,229.084034 L223.237258,266 L230,266 L230,220 L224.147627,220 L224.147627,257.302521 L224.017575,257.302521 L199.567663,220 L193,220 L193,266 L198.852373,266 Z M267.015679,267 C269.12137,267 271.237805,266.753681 273.364983,266.261044 C275.49216,265.768407 277.415215,264.975904 279.134146,263.883534 C280.853078,262.791165 282.260453,261.37751 283.356272,259.64257 C284.452091,257.907631 285,255.819277 285,253.37751 C285,251.107095 284.58101,249.222222 283.743031,247.722892 C282.905052,246.223561 281.787747,244.981258 280.391115,243.995984 C278.994483,243.01071 277.415215,242.228916 275.65331,241.650602 C273.891405,241.072289 272.097271,240.568942 270.270906,240.140562 C268.444541,239.712182 266.650407,239.31593 264.888502,238.951807 C263.126597,238.587684 261.547329,238.127175 260.150697,237.570281 C258.754065,237.013387 257.63676,236.29585 256.79878,235.417671 C255.960801,234.539491 255.541812,233.393574 255.541812,231.97992 C255.541812,230.480589 255.831882,229.227577 256.412021,228.220884 C256.99216,227.21419 257.765679,226.410977 258.732578,225.811245 C259.699477,225.211513 260.806039,224.783133 262.052265,224.526104 C263.29849,224.269076 264.566202,224.140562 265.855401,224.140562 C269.035424,224.140562 271.646051,224.879518 273.687282,226.35743 C275.728513,227.835341 276.921022,230.223561 277.264808,233.522088 L283.066202,233.522088 C282.980256,230.994645 282.496806,228.820616 281.615854,227 C280.734901,225.179384 279.531649,223.669344 278.006098,222.46988 C276.480546,221.270415 274.707898,220.392236 272.688153,219.835341 C270.668409,219.278447 268.476771,219 266.11324,219 C264.007549,219 261.955575,219.267738 259.957317,219.803213 C257.959059,220.338688 256.175668,221.15261 254.607143,222.24498 C253.038618,223.337349 251.781649,224.729585 250.836237,226.421687 C249.890825,228.113788 249.418118,230.116466 249.418118,232.429719 C249.418118,234.528782 249.837108,236.274431 250.675087,237.666667 C251.513066,239.058902 252.630372,240.19411 254.027003,241.072289 C255.423635,241.950469 257.002904,242.657296 258.764808,243.192771 C260.526713,243.728246 262.320848,244.199465 264.147213,244.606426 C265.973577,245.013387 267.767712,245.409639 269.529617,245.795181 C271.291521,246.180723 272.87079,246.68407 274.267422,247.305221 C275.664053,247.926372 276.781359,248.729585 277.619338,249.714859 C278.457317,250.700134 278.876307,251.985274 278.876307,253.570281 C278.876307,255.240964 278.53252,256.61178 277.844948,257.682731 C277.157375,258.753681 276.254936,259.599732 275.137631,260.220884 C274.020325,260.842035 272.763357,261.281124 271.366725,261.538153 C269.970093,261.795181 268.584204,261.923695 267.209059,261.923695 C265.490128,261.923695 263.81417,261.709505 262.181185,261.281124 C260.5482,260.852744 259.119338,260.188755 257.894599,259.289157 C256.669861,258.389558 255.681475,257.243641 254.929443,255.851406 C254.17741,254.45917 253.801394,252.799197 253.801394,250.871486 L248,250.871486 C248,253.655957 248.504936,256.065596 249.514808,258.100402 C250.524681,260.135207 251.899826,261.80589 253.640244,263.11245 C255.380662,264.419009 257.400407,265.393574 259.699477,266.036145 C261.998548,266.678715 264.437282,267 267.015679,267 Z M304.300604,266 L309.496979,252.148459 L329.113293,252.148459 L334.179758,266 L341,266 L322.877644,220 L316.057402,220 L298,266 L304.300604,266 Z M327,247 L311,247 L319,226 L319.132231,226 L327,247 Z M375.173709,267 C381.033907,267 385.653625,265.393574 389.032864,262.180723 C392.412102,258.967871 394.401148,254.46988 395,248.686747 L388.904538,248.686747 C388.776213,250.57162 388.391236,252.327979 387.749609,253.955823 C387.107981,255.583668 386.220396,256.986613 385.086854,258.164659 C383.953312,259.342704 382.605895,260.263722 381.044601,260.927711 C379.483307,261.5917 377.697444,261.923695 375.687011,261.923695 C372.9494,261.923695 370.596766,261.409639 368.629108,260.381526 C366.66145,259.353414 365.046688,257.971888 363.78482,256.236948 C362.522953,254.502008 361.592593,252.467202 360.99374,250.13253 C360.394888,247.797858 360.095462,245.323963 360.095462,242.710843 C360.095462,240.311914 360.394888,237.998661 360.99374,235.771084 C361.592593,233.543507 362.522953,231.562249 363.78482,229.827309 C365.046688,228.092369 366.650756,226.710843 368.597027,225.682731 C370.543297,224.654618 372.885237,224.140562 375.622848,224.140562 C378.830986,224.140562 381.600678,224.954485 383.931925,226.582329 C386.263172,228.210174 387.770996,230.651941 388.455399,233.907631 L394.550861,233.907631 C394.208659,231.465863 393.481481,229.313253 392.369327,227.449799 C391.257173,225.586345 389.86698,224.033467 388.198748,222.791165 C386.530516,221.548862 384.627021,220.606426 382.488263,219.963855 C380.349504,219.321285 378.08242,219 375.687011,219 C372.179447,219 369.067553,219.631861 366.35133,220.895582 C363.635107,222.159304 361.368023,223.883534 359.550078,226.068273 C357.732134,228.253012 356.352634,230.812584 355.411581,233.746988 C354.470527,236.681392 354,239.819277 354,243.160643 C354,246.502008 354.438445,249.629183 355.315336,252.542169 C356.192227,255.455154 357.507564,257.982597 359.261346,260.124498 C361.015128,262.266399 363.218049,263.947791 365.87011,265.168675 C368.52217,266.389558 371.62337,267 375.173709,267 Z M432,267 C435.645224,267 438.840156,266.34672 441.584795,265.040161 C444.329435,263.733601 446.623782,261.966533 448.467836,259.738956 C450.311891,257.511379 451.694932,254.951807 452.616959,252.060241 C453.538986,249.168675 454,246.159304 454,243.032129 C454,239.904953 453.538986,236.895582 452.616959,234.004016 C451.694932,231.11245 450.311891,228.552878 448.467836,226.325301 C446.623782,224.097724 444.329435,222.319946 441.584795,220.991968 C438.840156,219.663989 435.645224,219 432,219 C428.354776,219 425.159844,219.663989 422.415205,220.991968 C419.670565,222.319946 417.376218,224.097724 415.532164,226.325301 C413.688109,228.552878 412.305068,231.11245 411.383041,234.004016 C410.461014,236.895582 410,239.904953 410,243.032129 C410,246.159304 410.461014,249.168675 411.383041,252.060241 C412.305068,254.951807 413.688109,257.511379 415.532164,259.738956 C417.376218,261.966533 419.670565,263.733601 422.415205,265.040161 C425.159844,266.34672 428.354776,267 432,267 Z M432,262 C429.192982,262 426.774629,261.45068 424.744939,260.352041 C422.71525,259.253401 421.052632,257.79932 419.757085,255.989796 C418.461538,254.180272 417.511471,252.144558 416.906883,249.882653 C416.302294,247.620748 416,245.326531 416,243 C416,240.673469 416.302294,238.379252 416.906883,236.117347 C417.511471,233.855442 418.461538,231.819728 419.757085,230.010204 C421.052632,228.20068 422.71525,226.746599 424.744939,225.647959 C426.774629,224.54932 429.192982,224 432,224 C434.807018,224 437.225371,224.54932 439.255061,225.647959 C441.28475,226.746599 442.947368,228.20068 444.242915,230.010204 C445.538462,231.819728 446.488529,233.855442 447.093117,236.117347 C447.697706,238.379252 448,240.673469 448,243 C448,245.326531 447.697706,247.620748 447.093117,249.882653 C446.488529,252.144558 445.538462,254.180272 444.242915,255.989796 C442.947368,257.79932 441.28475,259.253401 439.255061,260.352041 C437.225371,261.45068 434.807018,262 432,262 Z M503,266 L503,260.845938 L479.02537,260.845938 L479.02537,220 L473,220 L473,266 L503,266 Z M519.300604,266 L524.496979,252.148459 L544.113293,252.148459 L549.179758,266 L556,266 L537.877644,220 L531.057402,220 L513,266 L519.300604,266 Z M543,247 L527,247 L535,226 L535.132231,226 L543,247 Z" id="PENSACOLA" fill="#3CC47C" fill-rule="nonzero"></path>
            <path d="M110.071429,294 L110.071429,275.187675 L124.003759,275.187675 C128.605263,275.230626 132.088346,274.049486 134.453008,271.644258 C136.817669,269.239029 138,265.888889 138,261.593838 C138,257.298786 136.817669,253.959384 134.453008,251.57563 C132.088346,249.191877 128.605263,248 124.003759,248 L104,248 L104,294 L110.071429,294 Z M121.964912,269.998146 L110,269.998146 L110,253 L121.964912,253 C125.438596,253 127.979532,253.724476 129.587719,255.173427 C131.195906,256.622379 132,258.730927 132,261.499073 C132,264.267219 131.195906,266.386581 129.587719,267.857158 C127.979532,269.327736 125.438596,270.041399 121.964912,269.998146 Z M189,294 L189,288.845938 L163.129032,288.845938 L163.129032,272.932773 L187.064516,272.932773 L187.064516,267.778711 L163.129032,267.778711 L163.129032,253.154062 L188.806452,253.154062 L188.806452,248 L157,248 L157,294 L189,294 Z M211.852373,294 L211.852373,257.084034 L211.982425,257.084034 L236.237258,294 L243,294 L243,248 L237.147627,248 L237.147627,285.302521 L237.017575,285.302521 L212.567663,248 L206,248 L206,294 L211.852373,294 Z M280.015679,295 C282.12137,295 284.237805,294.753681 286.364983,294.261044 C288.49216,293.768407 290.415215,292.975904 292.134146,291.883534 C293.853078,290.791165 295.260453,289.37751 296.356272,287.64257 C297.452091,285.907631 298,283.819277 298,281.37751 C298,279.107095 297.58101,277.222222 296.743031,275.722892 C295.905052,274.223561 294.787747,272.981258 293.391115,271.995984 C291.994483,271.01071 290.415215,270.228916 288.65331,269.650602 C286.891405,269.072289 285.097271,268.568942 283.270906,268.140562 C281.444541,267.712182 279.650407,267.31593 277.888502,266.951807 C276.126597,266.587684 274.547329,266.127175 273.150697,265.570281 C271.754065,265.013387 270.63676,264.29585 269.79878,263.417671 C268.960801,262.539491 268.541812,261.393574 268.541812,259.97992 C268.541812,258.480589 268.831882,257.227577 269.412021,256.220884 C269.99216,255.21419 270.765679,254.410977 271.732578,253.811245 C272.699477,253.211513 273.806039,252.783133 275.052265,252.526104 C276.29849,252.269076 277.566202,252.140562 278.855401,252.140562 C282.035424,252.140562 284.646051,252.879518 286.687282,254.35743 C288.728513,255.835341 289.921022,258.223561 290.264808,261.522088 L296.066202,261.522088 C295.980256,258.994645 295.496806,256.820616 294.615854,255 C293.734901,253.179384 292.531649,251.669344 291.006098,250.46988 C289.480546,249.270415 287.707898,248.392236 285.688153,247.835341 C283.668409,247.278447 281.476771,247 279.11324,247 C277.007549,247 274.955575,247.267738 272.957317,247.803213 C270.959059,248.338688 269.175668,249.15261 267.607143,250.24498 C266.038618,251.337349 264.781649,252.729585 263.836237,254.421687 C262.890825,256.113788 262.418118,258.116466 262.418118,260.429719 C262.418118,262.528782 262.837108,264.274431 263.675087,265.666667 C264.513066,267.058902 265.630372,268.19411 267.027003,269.072289 C268.423635,269.950469 270.002904,270.657296 271.764808,271.192771 C273.526713,271.728246 275.320848,272.199465 277.147213,272.606426 C278.973577,273.013387 280.767712,273.409639 282.529617,273.795181 C284.291521,274.180723 285.87079,274.68407 287.267422,275.305221 C288.664053,275.926372 289.781359,276.729585 290.619338,277.714859 C291.457317,278.700134 291.876307,279.985274 291.876307,281.570281 C291.876307,283.240964 291.53252,284.61178 290.844948,285.682731 C290.157375,286.753681 289.254936,287.599732 288.137631,288.220884 C287.020325,288.842035 285.763357,289.281124 284.366725,289.538153 C282.970093,289.795181 281.584204,289.923695 280.209059,289.923695 C278.490128,289.923695 276.81417,289.709505 275.181185,289.281124 C273.5482,288.852744 272.119338,288.188755 270.894599,287.289157 C269.669861,286.389558 268.681475,285.243641 267.929443,283.851406 C267.17741,282.45917 266.801394,280.799197 266.801394,278.871486 L261,278.871486 C261,281.655957 261.504936,284.065596 262.514808,286.100402 C263.524681,288.135207 264.899826,289.80589 266.640244,291.11245 C268.380662,292.419009 270.400407,293.393574 272.699477,294.036145 C274.998548,294.678715 277.437282,295 280.015679,295 Z M317.300604,294 L322.496979,280.148459 L342.113293,280.148459 L347.179758,294 L354,294 L335.877644,248 L329.057402,248 L311,294 L317.300604,294 Z M340,275 L324,275 L332,254 L332.132231,254 L340,275 Z M388.173709,295 C394.033907,295 398.653625,293.393574 402.032864,290.180723 C405.412102,286.967871 407.401148,282.46988 408,276.686747 L401.904538,276.686747 C401.776213,278.57162 401.391236,280.327979 400.749609,281.955823 C400.107981,283.583668 399.220396,284.986613 398.086854,286.164659 C396.953312,287.342704 395.605895,288.263722 394.044601,288.927711 C392.483307,289.5917 390.697444,289.923695 388.687011,289.923695 C385.9494,289.923695 383.596766,289.409639 381.629108,288.381526 C379.66145,287.353414 378.046688,285.971888 376.78482,284.236948 C375.522953,282.502008 374.592593,280.467202 373.99374,278.13253 C373.394888,275.797858 373.095462,273.323963 373.095462,270.710843 C373.095462,268.311914 373.394888,265.998661 373.99374,263.771084 C374.592593,261.543507 375.522953,259.562249 376.78482,257.827309 C378.046688,256.092369 379.650756,254.710843 381.597027,253.682731 C383.543297,252.654618 385.885237,252.140562 388.622848,252.140562 C391.830986,252.140562 394.600678,252.954485 396.931925,254.582329 C399.263172,256.210174 400.770996,258.651941 401.455399,261.907631 L407.550861,261.907631 C407.208659,259.465863 406.481481,257.313253 405.369327,255.449799 C404.257173,253.586345 402.86698,252.033467 401.198748,250.791165 C399.530516,249.548862 397.627021,248.606426 395.488263,247.963855 C393.349504,247.321285 391.08242,247 388.687011,247 C385.179447,247 382.067553,247.631861 379.35133,248.895582 C376.635107,250.159304 374.368023,251.883534 372.550078,254.068273 C370.732134,256.253012 369.352634,258.812584 368.411581,261.746988 C367.470527,264.681392 367,267.819277 367,271.160643 C367,274.502008 367.438445,277.629183 368.315336,280.542169 C369.192227,283.455154 370.507564,285.982597 372.261346,288.124498 C374.015128,290.266399 376.218049,291.947791 378.87011,293.168675 C381.52217,294.389558 384.62337,295 388.173709,295 Z M445,295 C448.645224,295 451.840156,294.34672 454.584795,293.040161 C457.329435,291.733601 459.623782,289.966533 461.467836,287.738956 C463.311891,285.511379 464.694932,282.951807 465.616959,280.060241 C466.538986,277.168675 467,274.159304 467,271.032129 C467,267.904953 466.538986,264.895582 465.616959,262.004016 C464.694932,259.11245 463.311891,256.552878 461.467836,254.325301 C459.623782,252.097724 457.329435,250.319946 454.584795,248.991968 C451.840156,247.663989 448.645224,247 445,247 C441.354776,247 438.159844,247.663989 435.415205,248.991968 C432.670565,250.319946 430.376218,252.097724 428.532164,254.325301 C426.688109,256.552878 425.305068,259.11245 424.383041,262.004016 C423.461014,264.895582 423,267.904953 423,271.032129 C423,274.159304 423.461014,277.168675 424.383041,280.060241 C425.305068,282.951807 426.688109,285.511379 428.532164,287.738956 C430.376218,289.966533 432.670565,291.733601 435.415205,293.040161 C438.159844,294.34672 441.354776,295 445,295 Z M445,290 C442.192982,290 439.774629,289.45068 437.744939,288.352041 C435.71525,287.253401 434.052632,285.79932 432.757085,283.989796 C431.461538,282.180272 430.511471,280.144558 429.906883,277.882653 C429.302294,275.620748 429,273.326531 429,271 C429,268.673469 429.302294,266.379252 429.906883,264.117347 C430.511471,261.855442 431.461538,259.819728 432.757085,258.010204 C434.052632,256.20068 435.71525,254.746599 437.744939,253.647959 C439.774629,252.54932 442.192982,252 445,252 C447.807018,252 450.225371,252.54932 452.255061,253.647959 C454.28475,254.746599 455.947368,256.20068 457.242915,258.010204 C458.538462,259.819728 459.488529,261.855442 460.093117,264.117347 C460.697706,266.379252 461,268.673469 461,271 C461,273.326531 460.697706,275.620748 460.093117,277.882653 C459.488529,280.144558 458.538462,282.180272 457.242915,283.989796 C455.947368,285.79932 454.28475,287.253401 452.255061,288.352041 C450.225371,289.45068 447.807018,290 445,290 Z M516,294 L516,288.845938 L492.02537,288.845938 L492.02537,248 L486,248 L486,294 L516,294 Z M532.300604,294 L537.496979,280.148459 L557.113293,280.148459 L562.179758,294 L569,294 L550.877644,248 L544.057402,248 L526,294 L532.300604,294 Z M556,275 L540,275 L548,254 L548.132231,254 L556,275 Z" id="PENSACOLA" fill="#FFFFFF" fill-rule="nonzero" opacity="0.064926327"></path>
        </g>
    </g>
</svg>