<svg width="479px" height="77px" viewBox="0 0 479 77" version="1.1" xmlns="http://www.w3.org/2000/svg" xmlns:xlink="http://www.w3.org/1999/xlink">
    <title>Group</title>
    <g id="Page-1" stroke="none" stroke-width="1" fill="none" fill-rule="evenodd">
        <g id="Group" fill-rule="nonzero">
            <path d="M6.07142857,48 L6.07142857,29.1876751 L20.0037594,29.1876751 C24.6052632,29.2306256 28.0883459,28.0494865 30.4530075,25.6442577 C32.8176692,23.2390289 34,19.8888889 34,15.5938375 C34,11.2987862 32.8176692,7.95938375 30.4530075,5.57563025 C28.0883459,3.19187675 24.6052632,2 20.0037594,2 L0,2 L0,48 L6.07142857,48 Z M17.9649123,23.9981463 L6,23.9981463 L6,7 L17.9649123,7 C21.4385965,7 23.9795322,7.7244757 25.5877193,9.17342711 C27.1959064,10.6223785 28,12.7309272 28,15.4990732 C28,18.2672191 27.1959064,20.3865809 25.5877193,21.8571584 C23.9795322,23.327736 21.4385965,24.0413986 17.9649123,23.9981463 Z M85,48 L85,42.8459384 L59.1290323,42.8459384 L59.1290323,26.9327731 L83.0645161,26.9327731 L83.0645161,21.7787115 L59.1290323,21.7787115 L59.1290323,7.15406162 L84.8064516,7.15406162 L84.8064516,2 L53,2 L53,48 L85,48 Z M107.852373,48 L107.852373,11.0840336 L107.982425,11.0840336 L132.237258,48 L139,48 L139,2 L133.147627,2 L133.147627,39.302521 L133.017575,39.302521 L108.567663,2 L102,2 L102,48 L107.852373,48 Z M176.015679,49 C178.12137,49 180.237805,48.7536814 182.364983,48.2610442 C184.49216,47.768407 186.415215,46.9759036 188.134146,45.8835341 C189.853078,44.7911647 191.260453,43.37751 192.356272,41.6425703 C193.452091,39.9076305 194,37.8192771 194,35.37751 C194,33.107095 193.58101,31.2222222 192.743031,29.7228916 C191.905052,28.2235609 190.787747,26.9812584 189.391115,25.9959839 C187.994483,25.0107095 186.415215,24.2289157 184.65331,23.6506024 C182.891405,23.0722892 181.097271,22.5689424 179.270906,22.1405622 C177.444541,21.7121821 175.650407,21.3159304 173.888502,20.9518072 C172.126597,20.5876841 170.547329,20.1271754 169.150697,19.5702811 C167.754065,19.0133869 166.63676,18.2958501 165.79878,17.4176707 C164.960801,16.5394913 164.541812,15.3935743 164.541812,13.9799197 C164.541812,12.480589 164.831882,11.227577 165.412021,10.2208835 C165.99216,9.21419009 166.765679,8.41097724 167.732578,7.81124498 C168.699477,7.21151272 169.806039,6.78313253 171.052265,6.52610442 C172.29849,6.26907631 173.566202,6.14056225 174.855401,6.14056225 C178.035424,6.14056225 180.646051,6.87951807 182.687282,8.35742972 C184.728513,9.83534137 185.921022,12.2235609 186.264808,15.5220884 L192.066202,15.5220884 C191.980256,12.9946452 191.496806,10.8206158 190.615854,9 C189.734901,7.1793842 188.531649,5.66934404 187.006098,4.46987952 C185.480546,3.27041499 183.707898,2.39223561 181.688153,1.83534137 C179.668409,1.27844712 177.476771,1 175.11324,1 C173.007549,1 170.955575,1.26773762 168.957317,1.80321285 C166.959059,2.33868809 165.175668,3.15261044 163.607143,4.24497992 C162.038618,5.3373494 160.781649,6.72958501 159.836237,8.42168675 C158.890825,10.1137885 158.418118,12.1164659 158.418118,14.4297189 C158.418118,16.5287818 158.837108,18.2744311 159.675087,19.6666667 C160.513066,21.0589023 161.630372,22.1941098 163.027003,23.0722892 C164.423635,23.9504685 166.002904,24.6572959 167.764808,25.1927711 C169.526713,25.7282463 171.320848,26.1994645 173.147213,26.6064257 C174.973577,27.0133869 176.767712,27.4096386 178.529617,27.7951807 C180.291521,28.1807229 181.87079,28.6840696 183.267422,29.3052209 C184.664053,29.9263722 185.781359,30.729585 186.619338,31.7148594 C187.457317,32.7001339 187.876307,33.9852744 187.876307,35.5702811 C187.876307,37.2409639 187.53252,38.6117805 186.844948,39.6827309 C186.157375,40.7536814 185.254936,41.5997323 184.137631,42.2208835 C183.020325,42.8420348 181.763357,43.2811245 180.366725,43.5381526 C178.970093,43.7951807 177.584204,43.9236948 176.209059,43.9236948 C174.490128,43.9236948 172.81417,43.7095047 171.181185,43.2811245 C169.5482,42.8527443 168.119338,42.188755 166.894599,41.2891566 C165.669861,40.3895582 164.681475,39.2436412 163.929443,37.8514056 C163.17741,36.45917 162.801394,34.7991968 162.801394,32.8714859 L157,32.8714859 C157,35.6559572 157.504936,38.0655957 158.514808,40.1004016 C159.524681,42.1352075 160.899826,43.8058902 162.640244,45.1124498 C164.380662,46.4190094 166.400407,47.3935743 168.699477,48.0361446 C170.998548,48.6787149 173.437282,49 176.015679,49 Z M213.300604,48 L218.496979,34.1484594 L238.113293,34.1484594 L243.179758,48 L250,48 L231.877644,2 L225.057402,2 L207,48 L213.300604,48 Z M236,29 L220,29 L228,8 L228.132231,8 L236,29 Z M284.173709,49 C290.033907,49 294.653625,47.3935743 298.032864,44.1807229 C301.412102,40.9678715 303.401148,36.4698795 304,30.686747 L297.904538,30.686747 C297.776213,32.5716198 297.391236,34.3279786 296.749609,35.9558233 C296.107981,37.583668 295.220396,38.9866131 294.086854,40.1646586 C292.953312,41.3427041 291.605895,42.2637216 290.044601,42.9277108 C288.483307,43.5917001 286.697444,43.9236948 284.687011,43.9236948 C281.9494,43.9236948 279.596766,43.4096386 277.629108,42.3815261 C275.66145,41.3534137 274.046688,39.9718876 272.78482,38.2369478 C271.522953,36.502008 270.592593,34.4672021 269.99374,32.1325301 C269.394888,29.7978581 269.095462,27.3239625 269.095462,24.7108434 C269.095462,22.3119143 269.394888,19.9986613 269.99374,17.7710843 C270.592593,15.5435074 271.522953,13.562249 272.78482,11.8273092 C274.046688,10.0923695 275.650756,8.71084337 277.597027,7.68273092 C279.543297,6.65461847 281.885237,6.14056225 284.622848,6.14056225 C287.830986,6.14056225 290.600678,6.95448461 292.931925,8.58232932 C295.263172,10.210174 296.770996,12.6519411 297.455399,15.9076305 L303.550861,15.9076305 C303.208659,13.4658635 302.481481,11.313253 301.369327,9.4497992 C300.257173,7.58634538 298.86698,6.0334672 297.198748,4.79116466 C295.530516,3.54886212 293.627021,2.6064257 291.488263,1.96385542 C289.349504,1.32128514 287.08242,1 284.687011,1 C281.179447,1 278.067553,1.63186078 275.35133,2.89558233 C272.635107,4.15930388 270.368023,5.88353414 268.550078,8.06827309 C266.732134,10.253012 265.352634,12.8125837 264.411581,15.746988 C263.470527,18.6813922 263,21.8192771 263,25.1606426 C263,28.502008 263.438445,31.6291834 264.315336,34.5421687 C265.192227,37.4551539 266.507564,39.9825971 268.261346,42.124498 C270.015128,44.2663989 272.218049,45.9477912 274.87011,47.1686747 C277.52217,48.3895582 280.62337,49 284.173709,49 Z M341,49 C344.645224,49 347.840156,48.3467202 350.584795,47.0401606 C353.329435,45.7336011 355.623782,43.9665328 357.467836,41.7389558 C359.311891,39.5113788 360.694932,36.9518072 361.616959,34.060241 C362.538986,31.1686747 363,28.1593039 363,25.0321285 C363,21.9049531 362.538986,18.8955823 361.616959,16.0040161 C360.694932,13.1124498 359.311891,10.5528782 357.467836,8.3253012 C355.623782,6.09772423 353.329435,4.31994645 350.584795,2.99196787 C347.840156,1.66398929 344.645224,1 341,1 C337.354776,1 334.159844,1.66398929 331.415205,2.99196787 C328.670565,4.31994645 326.376218,6.09772423 324.532164,8.3253012 C322.688109,10.5528782 321.305068,13.1124498 320.383041,16.0040161 C319.461014,18.8955823 319,21.9049531 319,25.0321285 C319,28.1593039 319.461014,31.1686747 320.383041,34.060241 C321.305068,36.9518072 322.688109,39.5113788 324.532164,41.7389558 C326.376218,43.9665328 328.670565,45.7336011 331.415205,47.0401606 C334.159844,48.3467202 337.354776,49 341,49 Z M341,44 C338.192982,44 335.774629,43.4506803 333.744939,42.3520408 C331.71525,41.2534014 330.052632,39.7993197 328.757085,37.9897959 C327.461538,36.1802721 326.511471,34.1445578 325.906883,31.8826531 C325.302294,29.6207483 325,27.3265306 325,25 C325,22.6734694 325.302294,20.3792517 325.906883,18.1173469 C326.511471,15.8554422 327.461538,13.8197279 328.757085,12.0102041 C330.052632,10.2006803 331.71525,8.74659864 333.744939,7.64795918 C335.774629,6.54931973 338.192982,6 341,6 C343.807018,6 346.225371,6.54931973 348.255061,7.64795918 C350.28475,8.74659864 351.947368,10.2006803 353.242915,12.0102041 C354.538462,13.8197279 355.488529,15.8554422 356.093117,18.1173469 C356.697706,20.3792517 357,22.6734694 357,25 C357,27.3265306 356.697706,29.6207483 356.093117,31.8826531 C355.488529,34.1445578 354.538462,36.1802721 353.242915,37.9897959 C351.947368,39.7993197 350.28475,41.2534014 348.255061,42.3520408 C346.225371,43.4506803 343.807018,44 341,44 Z M412,48 L412,42.8459384 L388.02537,42.8459384 L388.02537,2 L382,2 L382,48 L412,48 Z M428.300604,48 L433.496979,34.1484594 L453.113293,34.1484594 L458.179758,48 L465,48 L446.877644,2 L440.057402,2 L422,48 L428.300604,48 Z M452,29 L436,29 L444,8 L444.132231,8 L452,29 Z" id="PENSACOLA" fill="#3CC47C"></path>
            <path d="M19.0714286,76 L19.0714286,57.1876751 L33.0037594,57.1876751 C37.6052632,57.2306256 41.0883459,56.0494865 43.4530075,53.6442577 C45.8176692,51.2390289 47,47.8888889 47,43.5938375 C47,39.2987862 45.8176692,35.9593838 43.4530075,33.5756303 C41.0883459,31.1918768 37.6052632,30 33.0037594,30 L13,30 L13,76 L19.0714286,76 Z M30.9649123,51.9981463 L19,51.9981463 L19,35 L30.9649123,35 C34.4385965,35 36.9795322,35.7244757 38.5877193,37.1734271 C40.1959064,38.6223785 41,40.7309272 41,43.4990732 C41,46.2672191 40.1959064,48.3865809 38.5877193,49.8571584 C36.9795322,51.327736 34.4385965,52.0413986 30.9649123,51.9981463 Z M98,76 L98,70.8459384 L72.1290323,70.8459384 L72.1290323,54.9327731 L96.0645161,54.9327731 L96.0645161,49.7787115 L72.1290323,49.7787115 L72.1290323,35.1540616 L97.8064516,35.1540616 L97.8064516,30 L66,30 L66,76 L98,76 Z M120.852373,76 L120.852373,39.0840336 L120.982425,39.0840336 L145.237258,76 L152,76 L152,30 L146.147627,30 L146.147627,67.302521 L146.017575,67.302521 L121.567663,30 L115,30 L115,76 L120.852373,76 Z M189.015679,77 C191.12137,77 193.237805,76.7536814 195.364983,76.2610442 C197.49216,75.768407 199.415215,74.9759036 201.134146,73.8835341 C202.853078,72.7911647 204.260453,71.37751 205.356272,69.6425703 C206.452091,67.9076305 207,65.8192771 207,63.37751 C207,61.107095 206.58101,59.2222222 205.743031,57.7228916 C204.905052,56.2235609 203.787747,54.9812584 202.391115,53.9959839 C200.994483,53.0107095 199.415215,52.2289157 197.65331,51.6506024 C195.891405,51.0722892 194.097271,50.5689424 192.270906,50.1405622 C190.444541,49.7121821 188.650407,49.3159304 186.888502,48.9518072 C185.126597,48.5876841 183.547329,48.1271754 182.150697,47.5702811 C180.754065,47.0133869 179.63676,46.2958501 178.79878,45.4176707 C177.960801,44.5394913 177.541812,43.3935743 177.541812,41.9799197 C177.541812,40.480589 177.831882,39.227577 178.412021,38.2208835 C178.99216,37.2141901 179.765679,36.4109772 180.732578,35.811245 C181.699477,35.2115127 182.806039,34.7831325 184.052265,34.5261044 C185.29849,34.2690763 186.566202,34.1405622 187.855401,34.1405622 C191.035424,34.1405622 193.646051,34.8795181 195.687282,36.3574297 C197.728513,37.8353414 198.921022,40.2235609 199.264808,43.5220884 L205.066202,43.5220884 C204.980256,40.9946452 204.496806,38.8206158 203.615854,37 C202.734901,35.1793842 201.531649,33.669344 200.006098,32.4698795 C198.480546,31.270415 196.707898,30.3922356 194.688153,29.8353414 C192.668409,29.2784471 190.476771,29 188.11324,29 C186.007549,29 183.955575,29.2677376 181.957317,29.8032129 C179.959059,30.3386881 178.175668,31.1526104 176.607143,32.2449799 C175.038618,33.3373494 173.781649,34.729585 172.836237,36.4216867 C171.890825,38.1137885 171.418118,40.1164659 171.418118,42.4297189 C171.418118,44.5287818 171.837108,46.2744311 172.675087,47.6666667 C173.513066,49.0589023 174.630372,50.1941098 176.027003,51.0722892 C177.423635,51.9504685 179.002904,52.6572959 180.764808,53.1927711 C182.526713,53.7282463 184.320848,54.1994645 186.147213,54.6064257 C187.973577,55.0133869 189.767712,55.4096386 191.529617,55.7951807 C193.291521,56.1807229 194.87079,56.6840696 196.267422,57.3052209 C197.664053,57.9263722 198.781359,58.729585 199.619338,59.7148594 C200.457317,60.7001339 200.876307,61.9852744 200.876307,63.5702811 C200.876307,65.2409639 200.53252,66.6117805 199.844948,67.6827309 C199.157375,68.7536814 198.254936,69.5997323 197.137631,70.2208835 C196.020325,70.8420348 194.763357,71.2811245 193.366725,71.5381526 C191.970093,71.7951807 190.584204,71.9236948 189.209059,71.9236948 C187.490128,71.9236948 185.81417,71.7095047 184.181185,71.2811245 C182.5482,70.8527443 181.119338,70.188755 179.894599,69.2891566 C178.669861,68.3895582 177.681475,67.2436412 176.929443,65.8514056 C176.17741,64.45917 175.801394,62.7991968 175.801394,60.8714859 L170,60.8714859 C170,63.6559572 170.504936,66.0655957 171.514808,68.1004016 C172.524681,70.1352075 173.899826,71.8058902 175.640244,73.1124498 C177.380662,74.4190094 179.400407,75.3935743 181.699477,76.0361446 C183.998548,76.6787149 186.437282,77 189.015679,77 Z M226.300604,76 L231.496979,62.1484594 L251.113293,62.1484594 L256.179758,76 L263,76 L244.877644,30 L238.057402,30 L220,76 L226.300604,76 Z M249,57 L233,57 L241,36 L241.132231,36 L249,57 Z M297.173709,77 C303.033907,77 307.653625,75.3935743 311.032864,72.1807229 C314.412102,68.9678715 316.401148,64.4698795 317,58.686747 L310.904538,58.686747 C310.776213,60.5716198 310.391236,62.3279786 309.749609,63.9558233 C309.107981,65.583668 308.220396,66.9866131 307.086854,68.1646586 C305.953312,69.3427041 304.605895,70.2637216 303.044601,70.9277108 C301.483307,71.5917001 299.697444,71.9236948 297.687011,71.9236948 C294.9494,71.9236948 292.596766,71.4096386 290.629108,70.3815261 C288.66145,69.3534137 287.046688,67.9718876 285.78482,66.2369478 C284.522953,64.502008 283.592593,62.4672021 282.99374,60.1325301 C282.394888,57.7978581 282.095462,55.3239625 282.095462,52.7108434 C282.095462,50.3119143 282.394888,47.9986613 282.99374,45.7710843 C283.592593,43.5435074 284.522953,41.562249 285.78482,39.8273092 C287.046688,38.0923695 288.650756,36.7108434 290.597027,35.6827309 C292.543297,34.6546185 294.885237,34.1405622 297.622848,34.1405622 C300.830986,34.1405622 303.600678,34.9544846 305.931925,36.5823293 C308.263172,38.210174 309.770996,40.6519411 310.455399,43.9076305 L316.550861,43.9076305 C316.208659,41.4658635 315.481481,39.313253 314.369327,37.4497992 C313.257173,35.5863454 311.86698,34.0334672 310.198748,32.7911647 C308.530516,31.5488621 306.627021,30.6064257 304.488263,29.9638554 C302.349504,29.3212851 300.08242,29 297.687011,29 C294.179447,29 291.067553,29.6318608 288.35133,30.8955823 C285.635107,32.1593039 283.368023,33.8835341 281.550078,36.0682731 C279.732134,38.253012 278.352634,40.8125837 277.411581,43.746988 C276.470527,46.6813922 276,49.8192771 276,53.1606426 C276,56.502008 276.438445,59.6291834 277.315336,62.5421687 C278.192227,65.4551539 279.507564,67.9825971 281.261346,70.124498 C283.015128,72.2663989 285.218049,73.9477912 287.87011,75.1686747 C290.52217,76.3895582 293.62337,77 297.173709,77 Z M354,77 C357.645224,77 360.840156,76.3467202 363.584795,75.0401606 C366.329435,73.7336011 368.623782,71.9665328 370.467836,69.7389558 C372.311891,67.5113788 373.694932,64.9518072 374.616959,62.060241 C375.538986,59.1686747 376,56.1593039 376,53.0321285 C376,49.9049531 375.538986,46.8955823 374.616959,44.0040161 C373.694932,41.1124498 372.311891,38.5528782 370.467836,36.3253012 C368.623782,34.0977242 366.329435,32.3199465 363.584795,30.9919679 C360.840156,29.6639893 357.645224,29 354,29 C350.354776,29 347.159844,29.6639893 344.415205,30.9919679 C341.670565,32.3199465 339.376218,34.0977242 337.532164,36.3253012 C335.688109,38.5528782 334.305068,41.1124498 333.383041,44.0040161 C332.461014,46.8955823 332,49.9049531 332,53.0321285 C332,56.1593039 332.461014,59.1686747 333.383041,62.060241 C334.305068,64.9518072 335.688109,67.5113788 337.532164,69.7389558 C339.376218,71.9665328 341.670565,73.7336011 344.415205,75.0401606 C347.159844,76.3467202 350.354776,77 354,77 Z M354,72 C351.192982,72 348.774629,71.4506803 346.744939,70.3520408 C344.71525,69.2534014 343.052632,67.7993197 341.757085,65.9897959 C340.461538,64.1802721 339.511471,62.1445578 338.906883,59.8826531 C338.302294,57.6207483 338,55.3265306 338,53 C338,50.6734694 338.302294,48.3792517 338.906883,46.1173469 C339.511471,43.8554422 340.461538,41.8197279 341.757085,40.0102041 C343.052632,38.2006803 344.71525,36.7465986 346.744939,35.6479592 C348.774629,34.5493197 351.192982,34 354,34 C356.807018,34 359.225371,34.5493197 361.255061,35.6479592 C363.28475,36.7465986 364.947368,38.2006803 366.242915,40.0102041 C367.538462,41.8197279 368.488529,43.8554422 369.093117,46.1173469 C369.697706,48.3792517 370,50.6734694 370,53 C370,55.3265306 369.697706,57.6207483 369.093117,59.8826531 C368.488529,62.1445578 367.538462,64.1802721 366.242915,65.9897959 C364.947368,67.7993197 363.28475,69.2534014 361.255061,70.3520408 C359.225371,71.4506803 356.807018,72 354,72 Z M425,76 L425,70.8459384 L401.02537,70.8459384 L401.02537,30 L395,30 L395,76 L425,76 Z M441.300604,76 L446.496979,62.1484594 L466.113293,62.1484594 L471.179758,76 L478,76 L459.877644,30 L453.057402,30 L435,76 L441.300604,76 Z M465,57 L449,57 L457,36 L457.132231,36 L465,57 Z" id="PENSACOLA" fill="#FFFFFF" opacity="0.064926327"></path>
        </g>
    </g>
</svg>